PathFileType	4	(X/Y/Z)	/Users/itak/Documents/Research/Walk-IL/dataset/trc/00089_00006.trc
DataRate	CameraRate	NumFrames	NumMarkers	Units	OrigDataRate	OrigDataStartFrame	OrigNumFrames
100.000000	100.000000	4	53	mm	100.000000	252	504
Frame#	Time	RPSI			LPSI			L3			STRN			T10			C7			CLAV			RBAK			LBAK			LSHO			LUPA			LAEL			LAOL			LWTS			LWPS			LFRA			LIFD			LHPS			LHTS			RSHO			RUPA			RAEL			RAOL			RWTS			RWPS			RFRA			RIFD			RHTS			RHPS			RBHD			LFHD			RFHD			LBHD			LHIP			RHIP			RASI			LASI			LKNE			LTHI			LANK			LTIP			LTOE			LMT1			LMT5			LHEE			RKNE			RTHI			RANK			RTIP			RTOE			RMT1			RMT5			RHEE			
		X1	Y1	Z1	X2	Y2	Z2	X3	Y3	Z3	X4	Y4	Z4	X5	Y5	Z5	X6	Y6	Z6	X7	Y7	Z7	X8	Y8	Z8	X9	Y9	Z9	X10	Y10	Z10	X11	Y11	Z11	X12	Y12	Z12	X13	Y13	Z13	X14	Y14	Z14	X15	Y15	Z15	X16	Y16	Z16	X17	Y17	Z17	X18	Y18	Z18	X19	Y19	Z19	X20	Y20	Z20	X21	Y21	Z21	X22	Y22	Z22	X23	Y23	Z23	X24	Y24	Z24	X25	Y25	Z25	X26	Y26	Z26	X27	Y27	Z27	X28	Y28	Z28	X29	Y29	Z29	X30	Y30	Z30	X31	Y31	Z31	X32	Y32	Z32	X33	Y33	Z33	X34	Y34	Z34	X35	Y35	Z35	X36	Y36	Z36	X37	Y37	Z37	X38	Y38	Z38	X39	Y39	Z39	X40	Y40	Z40	X41	Y41	Z41	X42	Y42	Z42	X43	Y43	Z43	X44	Y44	Z44	X45	Y45	Z45	X46	Y46	Z46	X47	Y47	Z47	X48	Y48	Z48	X49	Y49	Z49	X50	Y50	Z50	X51	Y51	Z51	X52	Y52	Z52	X53	Y53	Z53	

253	2.52	-721.109375	1013.8837890625	215.1964569091797	-642.2896728515625	996.385009765625	57.52709579467773	-680.7117919921875	1069.5	137.9504699707031	-448.2352905273438	1258.492553710938	234.5794372558594	-694.5308227539062	1201.07958984375	138.5718231201172	-634.82080078125	1465.6318359375	157.7348785400391	-470.3201293945312	1373.997314453125	219.3010864257812	-724.8900146484375	1331.786987304688	208.5716094970703	-624.4785766601562	1425.827758789062	57.0289192199707	-505.1416320800781	1426.447509765625	19.86191940307617	-513.3926391601562	1302.657958984375	-63.44104385375977	-514.3761596679688	1091.085815429688	-92.15819549560547	-593.1177368164062	1079.364624023438	-20.83029174804688	-458.0979919433594	842.9051513671875	-23.10456085205078	-505.0360717773438	838.2373046875	-92.707275390625	-502.7789916992188	980.372314453125	-100.6934585571289	-463.157958984375	655.7883911132812	-9.420993804931641	-480.7584533691406	755.001953125	-85.22824859619141	-442.3409118652344	759.2782592773438	-25.39218139648438	-635.2610473632812	1431.15283203125	345.4716491699219	-666.8258666992188	1361.154907226562	403.3542785644531	-696.7134399414062	1094.394165039062	426.5350646972656	-653.421142578125	1072.99072265625	338.8659057617188	-528.0167846679688	858.2085571289062	435.0226135253906	-607.3441162109375	833.876708984375	461.8453063964844	-680.8077392578125	1014.562805175781	437.8338317871094	-494.1102905273438	672.3934936523438	426.098388671875	-493.5459594726562	761.2540893554688	444.172119140625	-563.2578735351562	750.1893310546875	478.0418090820312	-622.0672607421875	1626.430908203125	188.3826599121094	-418.7098083496094	1678.857055664062	258.6399536132812	-524.9496459960938	1661.919067382812	324.6490173339844	-513.0646362304688	1651.580078125	109.2331161499023	-502.5421142578125	938.7030639648438	29.95232009887695	-702.4920043945312	942.8069458007812	314.2287902832031	-585.4296875	956.4201049804688	356.5797119140625	-436.8907470703125	952.1536254882812	133.2969665527344	-332.2507934570312	525.6679077148438	200.2226867675781	-373.6668701171875	640.1454467773438	111.3392791748047	-241.2138977050781	56.9429817199707	207.2104187011719	-281.452392578125	286.6844787597656	189.3161163330078	-130.6422729492188	136.1961669921875	357.453369140625	-196.8202972412109	112.5366134643555	357.7233276367188	-149.7509918212891	86.13355255126953	259.5166015625	-330.7737121582031	37.86201858520508	218.9852600097656	-658.7625122070312	497.5895385742188	262.2518310546875	-644.4592895507812	759.51025390625	337.4276123046875	-780.6598510742188	42.91056060791016	133.1060485839844	-686.3643188476562	377.0767211914062	232.1074371337891	-563.2700805664062	41.03958129882812	166.3313446044922	-609.40771484375	46.60578918457031	111.7709655761719	-669.872802734375	45.00922012329102	190.0691528320312	-806.8753662109375	51.00480270385742	65.11549377441406	
254	2.53	-713.9588623046875	1012.36767578125	217.7987365722656	-633.7922973632812	995.0093994140625	60.7322998046875	-673.056396484375	1068.18701171875	140.7038269042969	-441.5211791992188	1257.35546875	238.8586578369141	-687.04345703125	1199.734008789062	141.1328125	-627.7247924804688	1464.341186523438	160.5333251953125	-463.5880432128906	1372.817016601562	223.2954711914062	-718.0593872070312	1330.467895507812	210.9087982177734	-616.6820678710938	1424.414306640625	59.93300628662109	-497.1024475097656	1425.003540039062	23.55669403076172	-504.8143005371094	1301.126831054688	-59.66706085205078	-505.9190368652344	1089.502563476562	-88.22507476806641	-585.166748046875	1077.9599609375	-17.40714454650879	-450.7190551757812	841.1463623046875	-18.85572052001953	-497.0462951660156	836.7092895507812	-88.86905670166016	-494.5037536621094	978.8110961914062	-96.7298583984375	-456.5661315917969	654.002197265625	-5.50256872177124	-473.0700378417969	753.3970947265625	-81.31983184814453	-435.2280578613281	757.45654296875	-21.09157943725586	-629.3482666015625	1430.011474609375	348.3451538085938	-661.3038330078125	1360.026245117188	406.0687866210938	-691.3405151367188	1093.27587890625	429.0475158691406	-647.535400390625	1071.857666015625	341.6270141601562	-523.12353515625	856.7228393554688	437.9697570800781	-602.5576171875	832.6011352539062	464.5904541015625	-675.5760498046875	1013.416870117188	440.3888244628906	-489.5260314941406	670.8626708984375	429.0395812988281	-488.9493103027344	759.6796264648438	447.176513671875	-558.7711181640625	748.7962036132812	480.8825988769531	-615.277099609375	1625.120971679688	191.1736907958984	-412.3742065429688	1677.826904296875	262.5782165527344	-518.9776000976562	1660.87939453125	327.9869995117188	-505.8385009765625	1650.199462890625	112.6648635864258	-493.8894958496094	937.4089965820312	34.12423706054688	-696.0084228515625	941.5130004882812	317.0716857910156	-579.0386962890625	955.1961059570312	360.2825317382812	-428.9917602539062	951.0294189453125	137.8954925537109	-326.5624389648438	524.312255859375	205.3524475097656	-367.0599975585938	638.1378784179688	115.9459915161133	-232.2592010498047	56.5965690612793	216.740234375	-274.0585632324219	285.930908203125	196.6837768554688	-123.7793197631836	137.1909332275391	367.8712463378906	-189.8262786865234	113.1124725341797	367.4796447753906	-141.5827941894531	86.66044616699219	269.933837890625	-321.7735900878906	36.96670150756836	227.6686706542969	-653.0109252929688	496.4672241210938	264.7972717285156	-638.3937377929688	758.227783203125	340.3506164550781	-780.4849243164062	43.60331726074219	133.1968841552734	-681.6724853515625	376.104248046875	234.0686340332031	-563.24560546875	41.03586959838867	166.4064788818359	-609.3203125	46.59908676147461	111.8015975952148	-669.7574462890625	44.95112228393555	190.1327362060547	-806.7681884765625	52.34859085083008	65.35922241210938	
255	2.54	-706.6954345703125	1010.921630859375	220.4617004394531	-625.2542724609375	993.7454833984375	63.98271179199219	-665.3043212890625	1066.869506835938	143.5443878173828	-434.7275085449219	1256.275268554688	243.1959533691406	-679.4586181640625	1198.39697265625	143.7548370361328	-620.5786743164062	1463.0791015625	163.3507995605469	-456.79736328125	1371.677612304688	227.3404693603516	-711.1554565429688	1329.14697265625	213.2538452148438	-608.8128051757812	1423.03759765625	62.85993576049805	-488.9792785644531	1423.614013671875	27.30225563049316	-496.0938415527344	1299.648559570312	-55.84962463378906	-497.2258605957031	1087.96044921875	-84.21923065185547	-577.0292358398438	1076.585693359375	-13.97734355926514	-443.1199340820312	839.441162109375	-14.48687362670898	-488.7755432128906	835.2196655273438	-84.94312286376953	-485.9681091308594	977.290771484375	-92.68274688720703	-449.7385864257812	652.2738037109375	-1.463693499565125	-465.0932006835938	751.838623046875	-77.30711364746094	-427.8696899414062	755.6991577148438	-16.6605339050293	-623.4296875	1428.88232421875	351.2244262695312	-655.8004150390625	1358.919555664062	408.770751953125	-686.0415649414062	1092.186157226562	431.5260620117188	-641.6859741210938	1070.753540039062	344.3796997070312	-518.3309936523438	855.2735595703125	440.9878234863281	-597.8915405273438	831.351806640625	467.3455200195312	-670.4562377929688	1012.293701171875	442.9154357910156	-485.0002136230469	669.3892822265625	432.0869140625	-484.420166015625	758.14404296875	450.2867126464844	-554.4268798828125	747.4356689453125	483.7623901367188	-608.4916381835938	1623.876220703125	194.0068817138672	-406.0264892578125	1676.853515625	266.5468444824219	-513.0059814453125	1659.905639648438	331.3473205566406	-498.6133728027344	1648.885009765625	116.1305847167969	-485.2741394042969	936.1950073242188	38.32607269287109	-689.4168090820312	940.222412109375	319.9275207519531	-572.3800659179688	953.9932861328125	364.0708923339844	-421.0534362792969	949.9476318359375	142.4960479736328	-320.4378356933594	523.1004638671875	210.7419586181641	-360.1920166015625	636.51953125	121.0768280029297	-225.5336303710938	55.796630859375	224.8081817626953	-267.6065979003906	284.8256530761719	203.5260314941406	-118.6349792480469	136.5290222167969	376.93994140625	-184.6352691650391	112.2942352294922	375.90185546875	-135.4763641357422	85.98968505859375	278.8729553222656	-315.0512390136719	36.04411697387695	234.9917602539062	-647.0531005859375	495.3441467285156	267.3827209472656	-632.2018432617188	756.9591674804688	343.2669067382812	-780.3067016601562	44.46753692626953	133.3038940429688	-676.8401489257812	375.1310119628906	236.0792999267578	-563.241455078125	41.03866958618164	166.4658355712891	-609.2337036132812	46.60784530639648	111.8519592285156	-669.6397705078125	44.91353607177734	190.1904144287109	-806.635498046875	53.90312957763672	65.6231689453125	
256	2.55	-699.3213500976562	1009.577758789062	223.1940460205078	-616.6836547851562	992.6097412109375	67.27850341796875	-657.4505615234375	1065.566772460938	146.4842224121094	-427.8458251953125	1255.272827148438	247.5892944335938	-671.7826538085938	1197.082275390625	146.4498596191406	-613.3853759765625	1461.86474609375	166.1913757324219	-449.9446716308594	1370.60302734375	231.4333648681641	-704.1756591796875	1327.843139648438	215.6141815185547	-600.8710327148438	1421.713500976562	65.81686401367188	-480.7780151367188	1422.30322265625	31.09652519226074	-487.2371826171875	1298.241943359375	-51.98695755004883	-488.293212890625	1086.484741210938	-80.14141845703125	-568.6942749023438	1075.256225585938	-10.52542209625244	-435.2969665527344	837.808837890625	-9.998739242553711	-480.2252197265625	833.7882690429688	-80.92495727539062	-477.1658325195312	975.8294677734375	-88.54296875	-442.657470703125	650.6193237304688	2.697816610336304	-456.8267822265625	750.3467407226562	-73.18580627441406	-420.259033203125	754.0199584960938	-12.10695648193359	-617.5003051757812	1427.780151367188	354.1120300292969	-650.3034057617188	1357.84814453125	411.4627380371094	-680.8232421875	1091.139526367188	433.9648132324219	-635.8829345703125	1069.69677734375	347.1204833984375	-513.6460571289062	853.8800659179688	444.0811157226562	-593.351806640625	830.1459350585938	470.104248046875	-665.4595336914062	1011.208862304688	445.4054260253906	-480.5555114746094	667.9912719726562	435.2483215332031	-479.96435546875	756.6646728515625	453.5022583007812	-550.2163696289062	746.1284790039062	486.6773986816406	-601.7037353515625	1622.709228515625	196.8790740966797	-399.6753540039062	1675.956176757812	270.5478210449219	-507.040771484375	1659.014038085938	334.7318420410156	-491.3863220214844	1647.657836914062	119.6320114135742	-476.6913452148438	935.071044921875	42.57451248168945	-682.7081298828125	938.9668579101562	322.8036193847656	-565.485595703125	952.8328857421875	367.9294738769531	-413.0670471191406	948.9278564453125	147.1075439453125	-313.9864196777344	521.9998168945312	216.4211120605469	-353.096435546875	635.2724609375	126.7318954467773	-220.7253112792969	54.60099029541016	231.4290771484375	-262.0017700195312	283.3912963867188	209.8719177246094	-115.0470886230469	134.2232208251953	384.8298034667969	-181.0760803222656	110.0781707763672	383.0960083007812	-131.1636810302734	84.18453216552734	286.4339599609375	-310.3171997070312	35.11062622070312	240.8875885009766	-640.9061279296875	494.2516479492188	270.0133666992188	-625.8966064453125	755.7337036132812	346.1812744140625	-780.10986328125	45.52536392211914	133.4429016113281	-671.886474609375	374.19091796875	238.1487884521484	-563.2423095703125	41.03531646728516	166.5148162841797	-609.13818359375	46.6383171081543	111.9277496337891	-669.513916015625	44.90581130981445	190.2541961669922	-806.4657592773438	55.69687271118164	65.90890502929688	
